<svg width="56" height="56" viewBox="0 0 56 56" fill="none" xmlns="http://www.w3.org/2000/svg">
<path fill-rule="evenodd" clip-rule="evenodd" d="M32.5134 37.4999H24.1655C21.0992 37.4999 18.7468 36.3924 19.415 31.9347L20.193 25.8935C20.6049 23.6693 22.0237 22.818 23.2685 22.818H33.447C34.7102 22.818 36.0466 23.7333 36.5225 25.8935L37.3006 31.9347C37.8681 35.8889 35.5797 37.4999 32.5134 37.4999Z" stroke="#53545C" stroke-width="1.5" stroke-linecap="round" stroke-linejoin="round"/>
<path d="M32.6502 22.5984C32.6502 20.2123 30.716 18.278 28.3299 18.278V18.278C27.1809 18.2731 26.0773 18.7262 25.2631 19.5369C24.4489 20.3477 23.9912 21.4493 23.9912 22.5984V22.5984" stroke="#53545C" stroke-width="1.5" stroke-linecap="round" stroke-linejoin="round"/>
<path d="M31.296 27.1018H31.2502" stroke="#53545C" stroke-width="1.5" stroke-linecap="round" stroke-linejoin="round"/>
<path d="M25.4649 27.1018H25.4192" stroke="#53545C" stroke-width="1.5" stroke-linecap="round" stroke-linejoin="round"/>
</svg>
