<svg width="8" height="5" viewBox="0 0 8 5" fill="none" xmlns="http://www.w3.org/2000/svg">
<g opacity="0.2">
<path d="M3.10721 4.81539C3.07268 4.78714 2.92501 4.68047 2.80354 4.5811C2.03959 3.99854 0.789159 2.47881 0.407481 1.68339C0.34615 1.56259 0.216344 1.25718 0.208008 1.09401C0.208008 0.937652 0.25088 0.788602 0.337814 0.646371C0.459284 0.46907 0.650421 0.326839 0.876093 0.248904C1.03269 0.198734 1.50131 0.120799 1.50964 0.120799C2.02232 0.0428641 2.85534 0 3.77589 0C4.65298 0 5.45206 0.0428641 5.97248 0.106673C5.98081 0.11398 6.56316 0.191914 6.76263 0.277155C7.12704 0.433512 7.35331 0.738919 7.35331 1.06576V1.09401C7.34438 1.30687 7.11811 1.75451 7.10977 1.75451C6.7275 2.50706 5.5384 3.99172 4.74825 4.58841C4.74825 4.58841 4.5452 4.75645 4.41838 4.82952C4.23617 4.9435 4.0105 5 3.78483 5C3.53295 5 3.29835 4.93619 3.10721 4.81539Z" fill="#030229"/>
</g>
</svg>
