<svg width="8" height="5" viewBox="0 0 8 5" fill="none" xmlns="http://www.w3.org/2000/svg">
<g opacity="0.2">
<path d="M3.38944 4.81539C3.3549 4.78714 3.20723 4.68047 3.08576 4.5811C2.32181 3.99854 1.07139 2.47881 0.689707 1.68339C0.628377 1.56259 0.498571 1.25718 0.490234 1.09401C0.490234 0.937652 0.533106 0.788602 0.620041 0.646371C0.741511 0.46907 0.932647 0.326839 1.15832 0.248904C1.31492 0.198734 1.78353 0.120799 1.79187 0.120799C2.30454 0.0428641 3.13757 0 4.05812 0C4.93521 0 5.73429 0.0428641 6.2547 0.106673C6.26304 0.11398 6.84538 0.191914 7.04486 0.277155C7.40927 0.433512 7.63553 0.738919 7.63553 1.06576V1.09401C7.6266 1.30687 7.40033 1.75451 7.392 1.75451C7.00972 2.50706 5.82063 3.99172 5.03048 4.58841C5.03048 4.58841 4.82743 4.75645 4.7006 4.82952C4.5184 4.9435 4.29272 5 4.06705 5C3.81518 5 3.58058 4.93619 3.38944 4.81539Z" fill="#030229"/>
</g>
</svg>
