<svg width="773" height="186" viewBox="0 0 773 186" fill="none" xmlns="http://www.w3.org/2000/svg">
<path d="M0 46.5L13.8937 54.2742C27.8687 61.7578 56.0625 77.7422 83.6875 89.1492C111.394 100.992 138.938 108.258 167.375 93C195 77.7422 222.625 38.5078 251.062 38.7258C278.606 38.5078 306.312 77.7422 333.938 89.1492C362.131 100.992 390 85.0078 417.625 93C445.737 100.992 473.687 131.508 501.312 120.101C529.262 108.258 557.375 54.4922 585 58.125C612.869 61.7578 641.062 90.1137 668.687 120.847C696.394 151.872 723.938 151.872 752.375 132.472C783.861 113.904 799.235 106.64 833.094 96.4128C868.812 87.0275 891.312 100.992 918.937 85.2258C947.131 69.75 975 23.25 1002.62 15.4758C1030.74 7.99219 1058.69 38.5078 1086.31 42.6492C1114.26 46.5 1142.38 23.25 1156.19 11.625L1170 0V186H1156.11C1142.13 186 1113.94 186 1086.31 186C1058.61 186 1031.06 186 1002.62 186C975 186 947.375 186 918.937 186C891.394 186 863.687 186 836.062 186C807.869 186 780 186 752.375 186C724.263 186 696.312 186 668.687 186C640.737 186 612.625 186 585 186C557.131 186 528.937 186 501.312 186C473.606 186 446.062 186 417.625 186C390 186 362.375 186 333.938 186C306.394 186 278.687 186 251.062 186C222.869 186 195 186 167.375 186C139.263 186 111.312 186 83.6875 186C55.7375 186 27.625 186 13.8125 186H0V46.5Z" fill="url(#paint0_linear_1_32066)"/>
<g filter="url(#filter0_d_1_32066)">
<path d="M0 48.7889L13.8937 56.9458C27.8687 64.7977 56.0625 81.5689 83.6875 93.5374C111.394 105.963 138.937 113.587 167.375 97.5778C195 81.5689 222.625 40.4033 251.062 40.632C278.606 40.4033 306.312 81.5689 333.937 93.5374C362.131 105.963 390 89.1922 417.625 97.5778C445.737 105.963 473.687 137.981 501.312 126.013C529.262 113.587 557.375 57.1745 585 60.9861C612.869 64.7977 641.062 94.5494 668.687 126.796C696.394 159.347 723.937 159.347 752.375 138.993C783.861 119.51 799.235 111.889 833.094 101.159C868.812 91.3113 891.312 105.963 918.937 89.4209C947.131 73.1833 975 24.3944 1002.62 16.2376C1030.74 8.38559 1058.69 40.4033 1086.31 44.7486C1114.26 48.7889 1142.37 24.3944 1156.19 12.1972L1170 0" stroke="url(#paint1_linear_1_32066)" stroke-width="4" stroke-linecap="round"/>
</g>
<defs>
<filter id="filter0_d_1_32066" x="-6" y="-2" width="1182" height="165" filterUnits="userSpaceOnUse" color-interpolation-filters="sRGB">
<feFlood flood-opacity="0" result="BackgroundImageFix"/>
<feColorMatrix in="SourceAlpha" type="matrix" values="0 0 0 0 0 0 0 0 0 0 0 0 0 0 0 0 0 0 127 0" result="hardAlpha"/>
<feOffset dy="4"/>
<feGaussianBlur stdDeviation="2"/>
<feColorMatrix type="matrix" values="0 0 0 0 0.376471 0 0 0 0 0.356863 0 0 0 0 1 0 0 0 0.17 0"/>
<feBlend mode="normal" in2="BackgroundImageFix" result="effect1_dropShadow_1_32066"/>
<feBlend mode="normal" in="SourceGraphic" in2="effect1_dropShadow_1_32066" result="shape"/>
</filter>
<linearGradient id="paint0_linear_1_32066" x1="-12.2661" y1="8.99999" x2="1169.98" y2="3.65834" gradientUnits="userSpaceOnUse">
<stop stop-color="#5EC3FF" stop-opacity="0.04"/>
<stop offset="1" stop-color="#FD5DEF" stop-opacity="0.04"/>
</linearGradient>
<linearGradient id="paint1_linear_1_32066" x1="-16.9839" y1="0" x2="1186.98" y2="-8.01973e-07" gradientUnits="userSpaceOnUse">
<stop stop-color="#5BC4FF"/>
<stop offset="1" stop-color="#FF5BEF"/>
</linearGradient>
</defs>
</svg>
