<svg width="48" height="48" viewBox="0 0 48 48" fill="none" xmlns="http://www.w3.org/2000/svg">
<circle cx="24" cy="24" r="24" fill="#605BFF" fill-opacity="0.1"/>
<path d="M31.4298 24.98C31.4698 24.66 31.4998 24.34 31.4998 24C31.4998 23.66 31.4698 23.34 31.4298 23.02L33.5398 21.37C33.7298 21.22 33.7798 20.95 33.6598 20.73L31.6598 17.27C31.6009 17.1669 31.5071 17.0881 31.3953 17.0478C31.2836 17.0074 31.1611 17.0083 31.0498 17.05L28.5598 18.05C28.0398 17.65 27.4798 17.32 26.8698 17.07L26.4898 14.42C26.4733 14.3024 26.4144 14.1948 26.3242 14.1175C26.234 14.0402 26.1186 13.9984 25.9998 14H21.9998C21.7498 14 21.5398 14.18 21.5098 14.42L21.1298 17.07C20.5198 17.32 19.9598 17.66 19.4398 18.05L16.9498 17.05C16.8919 17.0304 16.8311 17.0202 16.7698 17.02C16.5998 17.02 16.4298 17.11 16.3398 17.27L14.3398 20.73C14.2098 20.95 14.2698 21.22 14.4598 21.37L16.5698 23.02C16.5298 23.34 16.4998 23.67 16.4998 24C16.4998 24.33 16.5298 24.66 16.5698 24.98L14.4598 26.63C14.2698 26.78 14.2198 27.05 14.3398 27.27L16.3398 30.73C16.3988 30.8332 16.4926 30.912 16.6043 30.9523C16.7161 30.9927 16.8386 30.9918 16.9498 30.95L19.4398 29.95C19.9598 30.35 20.5198 30.68 21.1298 30.93L21.5098 33.58C21.5398 33.82 21.7498 34 21.9998 34H25.9998C26.2498 34 26.4598 33.82 26.4898 33.58L26.8698 30.93C27.4798 30.68 28.0398 30.34 28.5598 29.95L31.0498 30.95C31.1098 30.97 31.1698 30.98 31.2298 30.98C31.3998 30.98 31.5698 30.89 31.6598 30.73L33.6598 27.27C33.7798 27.05 33.7298 26.78 33.5398 26.63L31.4298 24.98ZM29.4498 23.27C29.4898 23.58 29.4998 23.79 29.4998 24C29.4998 24.21 29.4798 24.43 29.4498 24.73L29.3098 25.86L30.1998 26.56L31.2798 27.4L30.5798 28.61L29.3098 28.1L28.2698 27.68L27.3698 28.36C26.9398 28.68 26.5298 28.92 26.1198 29.09L25.0598 29.52L24.8998 30.65L24.6998 32H23.2998L23.1098 30.65L22.9498 29.52L21.8898 29.09C21.4598 28.91 21.0598 28.68 20.6598 28.38L19.7498 27.68L18.6898 28.11L17.4198 28.62L16.7198 27.41L17.7998 26.57L18.6898 25.87L18.5498 24.74C18.5198 24.43 18.4998 24.2 18.4998 24C18.4998 23.8 18.5198 23.57 18.5498 23.27L18.6898 22.14L17.7998 21.44L16.7198 20.6L17.4198 19.39L18.6898 19.9L19.7298 20.32L20.6298 19.64C21.0598 19.32 21.4698 19.08 21.8798 18.91L22.9398 18.48L23.0998 17.35L23.2998 16H24.6898L24.8798 17.35L25.0398 18.48L26.0998 18.91C26.5298 19.09 26.9298 19.32 27.3298 19.62L28.2398 20.32L29.2998 19.89L30.5698 19.38L31.2698 20.59L30.1998 21.44L29.3098 22.14L29.4498 23.27ZM23.9998 20C21.7898 20 19.9998 21.79 19.9998 24C19.9998 26.21 21.7898 28 23.9998 28C26.2098 28 27.9998 26.21 27.9998 24C27.9998 21.79 26.2098 20 23.9998 20ZM23.9998 26C22.8998 26 21.9998 25.1 21.9998 24C21.9998 22.9 22.8998 22 23.9998 22C25.0998 22 25.9998 22.9 25.9998 24C25.9998 25.1 25.0998 26 23.9998 26Z" fill="black"/>
</svg>
