<svg width="48" height="48" viewBox="0 0 48 48" fill="none" xmlns="http://www.w3.org/2000/svg">
<circle cx="24" cy="24" r="24" fill="#605BFF" fill-opacity="0.1"/>
<path d="M20 21H28M20 25H26M30 16C30.7956 16 31.5587 16.3161 32.1213 16.8787C32.6839 17.4413 33 18.2044 33 19V27C33 27.7956 32.6839 28.5587 32.1213 29.1213C31.5587 29.6839 30.7956 30 30 30H25L20 33V30H18C17.2044 30 16.4413 29.6839 15.8787 29.1213C15.3161 28.5587 15 27.7956 15 27V19C15 18.2044 15.3161 17.4413 15.8787 16.8787C16.4413 16.3161 17.2044 16 18 16H30Z" stroke="black" stroke-width="2" stroke-linecap="round" stroke-linejoin="round"/>
</svg>
