<svg width="48" height="48" viewBox="0 0 48 48" fill="none" xmlns="http://www.w3.org/2000/svg">
<g clip-path="url(#clip0_1_31849)">
<path fill-rule="evenodd" clip-rule="evenodd" d="M26.9998 31C27 31.5046 26.8094 31.9906 26.4664 32.3605C26.1233 32.7305 25.653 32.9572 25.1498 32.995L24.9998 33H22.9998C22.4953 33.0002 22.0093 32.8096 21.6393 32.4665C21.2693 32.1234 21.0427 31.6532 21.0048 31.15L20.9998 31H26.9998ZM23.9998 14C25.8148 14 27.5589 14.7049 28.8641 15.9661C30.1693 17.2273 30.9336 18.9461 30.9958 20.76L30.9998 21V24.764L32.8218 28.408C32.9014 28.567 32.9412 28.7429 32.9378 28.9206C32.9345 29.0984 32.8881 29.2727 32.8027 29.4286C32.7173 29.5845 32.5953 29.7174 32.4473 29.8158C32.2993 29.9143 32.1297 29.9754 31.9528 29.994L31.8378 30H16.1618C15.984 30.0001 15.8088 29.957 15.6513 29.8745C15.4937 29.792 15.3585 29.6725 15.2573 29.5264C15.156 29.3802 15.0917 29.2116 15.0699 29.0351C15.048 28.8586 15.0693 28.6795 15.1318 28.513L15.1778 28.408L16.9998 24.764V21C16.9998 19.1435 17.7373 17.363 19.0501 16.0503C20.3629 14.7375 22.1433 14 23.9998 14ZM23.9998 16C22.7114 16.0001 21.4727 16.4975 20.5421 17.3887C19.6115 18.2798 19.0608 19.4958 19.0048 20.783L18.9998 21V24.764C18.9999 25.012 18.9537 25.2579 18.8638 25.489L18.7888 25.659L17.6188 28H30.3818L29.2118 25.658C29.1009 25.4363 29.032 25.1959 29.0088 24.949L28.9998 24.764V21C28.9998 19.6739 28.4731 18.4021 27.5354 17.4645C26.5977 16.5268 25.3259 16 23.9998 16Z" fill="black"/>
</g>
<circle cx="24" cy="24" r="24" fill="#605BFF" fill-opacity="0.1"/>
<defs>
<clipPath id="clip0_1_31849">
<rect width="24" height="24" fill="white" transform="translate(12 12)"/>
</clipPath>
</defs>
</svg>
