<svg width="140" height="140" viewBox="0 0 140 140" fill="none" xmlns="http://www.w3.org/2000/svg">
<rect x="0.5" y="0.5" width="139" height="139" rx="69.5" fill="#F4F5FA"/>
<path fill-rule="evenodd" clip-rule="evenodd" d="M92.2832 80.7868L90.3609 65.3002C89.1899 59.7741 85.8757 57.5 82.7161 57.5H57.3293C54.1255 57.5 50.7009 59.6149 49.7066 65.3002L47.7623 80.7868C46.1714 92.1574 52.0265 95 59.6713 95H80.3962C88.0189 95 93.6972 90.8839 92.2832 80.7868ZM62.7425 70.3714C61.5222 70.3714 60.533 69.3533 60.533 68.0973C60.533 66.8414 61.5222 65.8232 62.7425 65.8232C63.9627 65.8232 64.952 66.8414 64.952 68.0973C64.952 69.3533 63.9627 70.3714 62.7425 70.3714ZM75.0051 68.0973C75.0051 69.3533 75.9943 70.3714 77.2145 70.3714C78.4348 70.3714 79.424 69.3533 79.424 68.0973C79.424 66.8414 78.4348 65.8232 77.2145 65.8232C75.9943 65.8232 75.0051 66.8414 75.0051 68.0973Z" fill="#BEC0CA"/>
<path opacity="0.4" d="M82.4347 56.9358C82.4425 57.1297 82.4053 57.3228 82.3258 57.5H78.733C78.6634 57.3199 78.6266 57.1288 78.6242 56.9358C78.6242 52.1421 74.7247 48.256 69.9144 48.256C65.1041 48.256 61.2046 52.1421 61.2046 56.9358C61.2376 57.1224 61.2376 57.3134 61.2046 57.5H57.5247C57.4918 57.3134 57.4918 57.1224 57.5247 56.9358C57.8043 50.2648 63.3125 45 70.0124 45C76.7122 45 82.2204 50.2648 82.5 56.9358H82.4347Z" fill="#BEC0CA"/>
<rect x="0.5" y="0.5" width="139" height="139" rx="69.5" stroke="#E1E2E9"/>
</svg>
