<svg width="22" height="18" viewBox="0 0 22 18" fill="none" xmlns="http://www.w3.org/2000/svg">
<path id="Vector" d="M10.1762 0.378046C10.2993 0.497457 10.3969 0.639349 10.4635 0.795581C10.5301 0.951816 10.5644 1.11932 10.5644 1.28849C10.5644 1.45765 10.5301 1.62516 10.4635 1.78139C10.3969 1.93763 10.2993 2.07952 10.1762 2.19893L4.51345 7.71406L20.6803 7.71406C21.0303 7.71406 21.366 7.84948 21.6135 8.09053C21.861 8.33157 22 8.6585 22 8.99939C22 9.34028 21.861 9.66721 21.6135 9.90826C21.366 10.1493 21.0303 10.2847 20.6803 10.2847L4.51345 10.2847L10.1762 15.802C10.4242 16.0435 10.5634 16.371 10.5634 16.7124C10.5634 17.0539 10.4242 17.3814 10.1762 17.6229C9.9283 17.8643 9.59204 18 9.24142 18C8.89079 18 8.55453 17.8643 8.3066 17.6229L0.388164 9.91091C0.265129 9.7915 0.167508 9.6496 0.100898 9.49337C0.0342878 9.33714 -3.85988e-07 9.16963 -3.93382e-07 9.00046C-4.00777e-07 8.8313 0.0342878 8.66379 0.100898 8.50756C0.167508 8.35133 0.265129 8.20943 0.388164 8.09002L8.3066 0.378046C8.42921 0.25822 8.5749 0.163143 8.73532 0.09827C8.89573 0.0333973 9.06772 1.51099e-06 9.24142 1.50339e-06C9.41511 1.4958e-06 9.5871 0.0333973 9.74752 0.09827C9.90793 0.163143 10.0536 0.25822 10.1762 0.378046Z" fill="black"/>
</svg>
