<svg width="21" height="22" viewBox="0 0 21 22" fill="none" xmlns="http://www.w3.org/2000/svg">
<g id="Bag">
<path id="Path_33955" fill-rule="evenodd" clip-rule="evenodd" d="M14.5134 20.4999H6.16555C3.09919 20.4999 0.746786 19.3924 1.41498 14.9347L2.19301 8.89351C2.60491 6.66925 4.02367 5.81799 5.26852 5.81799H15.447C16.7102 5.81799 18.0466 6.73332 18.5225 8.89351L19.3006 14.9347C19.8681 18.8889 17.5797 20.4999 14.5134 20.4999Z" stroke="#53545C" stroke-width="1.5" stroke-linecap="round" stroke-linejoin="round"/>
<path id="Path_33956" d="M14.6512 5.59836C14.6512 3.21229 12.7169 1.27799 10.3309 1.27799V1.27799C9.18186 1.27312 8.07825 1.72615 7.26406 2.53691C6.44987 3.34766 5.99218 4.44935 5.99219 5.59836H5.99219" stroke="#53545C" stroke-width="1.5" stroke-linecap="round" stroke-linejoin="round"/>
<path id="Line_192" d="M13.297 10.1018H13.2512" stroke="#53545C" stroke-width="1.5" stroke-linecap="round" stroke-linejoin="round"/>
<path id="Line_193" d="M7.46492 10.1018H7.41916" stroke="#53545C" stroke-width="1.5" stroke-linecap="round" stroke-linejoin="round"/>
</g>
</svg>
