<svg width="24" height="24" viewBox="0 0 24 24" fill="none" xmlns="http://www.w3.org/2000/svg">
<g id="Emoji">
<path id="Vector" d="M7.68748 4.56683C7.61342 4.64088 7.55722 4.73015 7.51027 4.82801L7.50498 4.82272L0.0888246 21.5289L0.0960979 21.5362C-0.0414343 21.8027 0.188668 22.3448 0.660112 22.817C1.13156 23.2884 1.67375 23.5185 1.94022 23.381L1.94683 23.3876L18.653 15.9708L18.6477 15.9648C18.7449 15.9185 18.8342 15.8623 18.9089 15.7869C19.9417 14.7541 18.2669 11.4051 15.1691 8.30665C12.07 5.20821 8.72095 3.53402 7.68748 4.56683Z" fill="#DD2E44"/>
<path id="Vector_2" d="M8.59598 7.55054L0.275286 21.1094L0.0888246 21.5292L0.0960979 21.5365C-0.0414343 21.803 0.188668 22.3452 0.660112 22.8173C0.813514 22.9707 0.972866 23.087 1.12891 23.1856L11.2408 10.8566L8.59598 7.55054Z" fill="#EA596E"/>
<path id="Vector_3" d="M15.2163 8.25547C18.3042 11.3447 20.0187 14.6375 19.0441 15.6108C18.0701 16.5854 14.7773 14.8716 11.6874 11.7837C8.59891 8.69452 6.88505 5.40036 7.85901 4.42639C8.83364 3.45243 12.1265 5.16629 15.2163 8.25547Z" fill="#A0041E"/>
<path id="Vector_4" d="M12.2916 8.61427C12.16 8.72073 11.9881 8.77627 11.8063 8.75644C11.2324 8.69428 10.7497 8.4946 10.4118 8.1792C10.0541 7.84528 9.87753 7.39698 9.9258 6.94802C10.0104 6.15985 10.8012 5.43649 12.1495 5.58195C12.6738 5.63816 12.9079 5.46955 12.9158 5.38888C12.9251 5.30887 12.7326 5.09398 12.2083 5.03712C11.6344 4.97496 11.1517 4.77528 10.8131 4.45988C10.4554 4.12596 10.2782 3.67766 10.3272 3.2287C10.4131 2.44053 11.2033 1.71717 12.5501 1.86329C12.9323 1.90429 13.134 1.82561 13.2193 1.77469C13.2874 1.73304 13.3145 1.69336 13.3172 1.67022C13.3251 1.59021 13.1353 1.37532 12.6097 1.31846C12.2467 1.27878 11.9835 0.953467 12.0238 0.5898C12.0628 0.226794 12.3875 -0.0357072 12.7518 0.00396552C14.0987 0.148771 14.7176 1.02356 14.6323 1.81238C14.5463 2.60187 13.7562 3.32391 12.408 3.17911C12.0258 3.13745 11.8261 3.2168 11.7402 3.26771C11.6721 3.30871 11.6443 3.34904 11.6416 3.37152C11.633 3.45219 11.8241 3.66642 12.3498 3.72329C13.6967 3.86875 14.3156 4.74288 14.2303 5.5317C14.145 6.31987 13.3548 7.04323 12.0073 6.89711C11.6251 6.85611 11.4241 6.93546 11.3381 6.98571C11.2694 7.02803 11.2429 7.0677 11.2403 7.09018C11.2317 7.17019 11.4228 7.38508 11.9478 7.44195C12.3101 7.48162 12.574 7.8076 12.5336 8.1706C12.5151 8.35177 12.4232 8.50848 12.2916 8.61427Z" fill="#AA8DD8"/>
<path id="Vector_5" d="M20.2748 14.7297C21.5794 14.3614 22.4793 14.9432 22.6935 15.7069C22.9078 16.47 22.4436 17.436 21.1397 17.803C20.6305 17.9458 20.4778 18.1891 20.4983 18.2665C20.5208 18.3445 20.7793 18.4728 21.2871 18.3293C22.591 17.9623 23.4909 18.5442 23.7052 19.3072C23.9207 20.0709 23.4552 21.0356 22.1507 21.4033C21.6422 21.5461 21.4888 21.7901 21.5113 21.8674C21.5331 21.9448 21.791 22.0731 22.2994 21.9303C22.6499 21.8317 23.0162 22.0361 23.1147 22.3872C23.2126 22.7389 23.0083 23.1039 22.6565 23.2031C21.3532 23.5701 20.4527 22.9895 20.2371 22.2252C20.0229 21.4621 20.4877 20.4974 21.7929 20.1298C22.3021 19.9863 22.4548 19.7436 22.4323 19.6656C22.4112 19.5882 22.1533 19.4593 21.6455 19.6021C20.3403 19.9698 19.441 19.3892 19.2261 18.6242C19.0112 17.8612 19.4761 16.8964 20.7806 16.5282C21.2884 16.386 21.4412 16.1413 21.42 16.0646C21.3975 15.9866 21.1403 15.8583 20.6319 16.0012C20.2801 16.1003 19.9158 15.8954 19.8166 15.5443C19.7181 15.1938 19.923 14.8288 20.2748 14.7297Z" fill="#77B255"/>
<path id="Vector_6" d="M15.2086 12.9459C15.0142 12.9459 14.8225 12.8606 14.6916 12.6979C14.4635 12.4123 14.5104 11.9964 14.7947 11.7683C14.9389 11.6526 18.3772 8.95218 23.2364 9.64711C23.5981 9.69868 23.8494 10.0333 23.7978 10.3949C23.7462 10.756 23.4143 11.0099 23.0493 10.9556C18.756 10.346 15.6523 12.7766 15.6219 12.8011C15.4989 12.899 15.3534 12.9459 15.2086 12.9459Z" fill="#AA8DD8"/>
<path id="Vector_7" d="M3.80507 10.1957C3.74225 10.1957 3.67812 10.1864 3.61464 10.1679C3.26486 10.0628 3.06649 9.69446 3.17163 9.34468C3.92078 6.84993 4.59985 2.86877 3.7654 1.83066C3.67216 1.71297 3.53133 1.59726 3.20865 1.62172C2.58844 1.66933 2.64729 2.97787 2.64795 2.99109C2.67572 3.35542 2.40198 3.6728 2.03831 3.69991C1.66869 3.72239 1.3566 3.45394 1.32949 3.08961C1.26138 2.1778 1.54504 0.421621 3.10947 0.303264C3.80771 0.250367 4.3876 0.493032 4.79689 1.00217C6.36462 2.9534 4.77308 8.61008 4.43851 9.72488C4.35255 10.0112 4.08939 10.1957 3.80507 10.1957Z" fill="#77B255"/>
<path id="Vector_8" d="M16.861 6.8894C17.4087 6.8894 17.8528 6.44535 17.8528 5.89758C17.8528 5.34981 17.4087 4.90576 16.861 4.90576C16.3132 4.90576 15.8691 5.34981 15.8691 5.89758C15.8691 6.44535 16.3132 6.8894 16.861 6.8894Z" fill="#5C913B"/>
<path id="Vector_9" d="M1.32242 12.8402C2.05278 12.8402 2.64485 12.2481 2.64485 11.5177C2.64485 10.7874 2.05278 10.1953 1.32242 10.1953C0.59207 10.1953 0 10.7874 0 11.5177C0 12.2481 0.59207 12.8402 1.32242 12.8402Z" fill="#9266CC"/>
<path id="Vector_10" d="M21.4899 13.5012C22.0376 13.5012 22.4817 13.0572 22.4817 12.5094C22.4817 11.9616 22.0376 11.5176 21.4899 11.5176C20.9421 11.5176 20.498 11.9616 20.498 12.5094C20.498 13.0572 20.9421 13.5012 21.4899 13.5012Z" fill="#5C913B"/>
<path id="Vector_11" d="M15.5387 21.4358C16.0865 21.4358 16.5305 20.9917 16.5305 20.444C16.5305 19.8962 16.0865 19.4521 15.5387 19.4521C14.9909 19.4521 14.5469 19.8962 14.5469 20.444C14.5469 20.9917 14.9909 21.4358 15.5387 21.4358Z" fill="#5C913B"/>
<path id="Vector_12" d="M18.5138 3.58284C19.2442 3.58284 19.8363 2.99077 19.8363 2.26041C19.8363 1.53006 19.2442 0.937988 18.5138 0.937988C17.7835 0.937988 17.1914 1.53006 17.1914 2.26041C17.1914 2.99077 17.7835 3.58284 18.5138 3.58284Z" fill="#FFCC4D"/>
<path id="Vector_13" d="M21.4899 6.22753C22.0376 6.22753 22.4817 5.78348 22.4817 5.23572C22.4817 4.68795 22.0376 4.2439 21.4899 4.2439C20.9421 4.2439 20.498 4.68795 20.498 5.23572C20.498 5.78348 20.9421 6.22753 21.4899 6.22753Z" fill="#FFCC4D"/>
<path id="Vector_14" d="M19.5055 8.87231C20.0533 8.87231 20.4973 8.42826 20.4973 7.88049C20.4973 7.33272 20.0533 6.88867 19.5055 6.88867C18.9577 6.88867 18.5137 7.33272 18.5137 7.88049C18.5137 8.42826 18.9577 8.87231 19.5055 8.87231Z" fill="#FFCC4D"/>
<path id="Vector_15" d="M4.95862 16.146C5.50638 16.146 5.95043 15.7019 5.95043 15.1542C5.95043 14.6064 5.50638 14.1624 4.95862 14.1624C4.41085 14.1624 3.9668 14.6064 3.9668 15.1542C3.9668 15.7019 4.41085 16.146 4.95862 16.146Z" fill="#FFCC4D"/>
</g>
</svg>
