<svg width="23" height="24" viewBox="0 0 23 24" fill="none" xmlns="http://www.w3.org/2000/svg">
<g id="Emoji">
<path id="Vector" d="M15.5724 4.80847C15.644 4.88002 15.6983 4.96627 15.7436 5.06082L15.7488 5.05571L22.9142 21.1972L22.9072 21.2042C23.0401 21.4616 22.8177 21.9855 22.3622 22.4417C21.9067 22.8972 21.3829 23.1195 21.1254 22.9866L21.119 22.993L4.97757 15.8269L4.98268 15.8211C4.88877 15.7764 4.80252 15.7221 4.73033 15.6493C3.73243 14.6514 5.35066 11.4156 8.34372 8.42186C11.3381 5.42816 14.5739 3.81057 15.5724 4.80847Z" fill="#DD2E44"/>
<path id="Vector_2" d="M14.6946 7.69141L22.7341 20.7919L22.9142 21.1976L22.9072 21.2046C23.0401 21.462 22.8177 21.9859 22.3622 22.4421C22.214 22.5903 22.0601 22.7027 21.9093 22.7979L12.1392 10.8857L14.6946 7.69141Z" fill="#EA596E"/>
<path id="Vector_3" d="M8.29943 8.37217C5.31595 11.3569 3.65939 14.5385 4.60107 15.4789C5.54211 16.4205 8.72363 14.7646 11.709 11.7811C14.6931 8.79638 16.3491 5.61357 15.408 4.67253C14.4664 3.73149 11.2848 5.38742 8.29943 8.37217Z" fill="#A0041E"/>
<path id="Vector_4" d="M11.1236 8.71907C11.2507 8.82193 11.4168 8.87559 11.5925 8.85643C12.147 8.79637 12.6134 8.60344 12.9399 8.2987C13.2855 7.97607 13.4561 7.54293 13.4094 7.10914C13.3277 6.34762 12.5636 5.64871 11.2609 5.78926C10.7543 5.84356 10.5282 5.68065 10.5205 5.60271C10.5116 5.52541 10.6975 5.31778 11.2041 5.26283C11.7586 5.20278 12.225 5.00985 12.5521 4.70511C12.8977 4.38248 13.0689 3.94934 13.0216 3.51555C12.9386 2.75403 12.1752 2.05512 10.8738 2.1963C10.5045 2.23591 10.3097 2.15989 10.2273 2.1107C10.1615 2.07045 10.1353 2.03212 10.1327 2.00976C10.125 1.93245 10.3084 1.72482 10.8163 1.66988C11.167 1.63155 11.4213 1.31723 11.3823 0.965858C11.3446 0.615124 11.031 0.361496 10.6789 0.399828C9.37758 0.539738 8.77961 1.38495 8.86202 2.14711C8.94507 2.90991 9.70851 3.60755 11.0111 3.46764C11.3804 3.42739 11.5733 3.50405 11.6564 3.55324C11.7222 3.59285 11.749 3.63182 11.7516 3.65354C11.7599 3.73149 11.5753 3.93848 11.0674 3.99342C9.76601 4.13397 9.16804 4.97854 9.25045 5.7407C9.33286 6.50222 10.0963 7.20114 11.3983 7.05995C11.7676 7.02034 11.9618 7.097 12.0448 7.14556C12.1113 7.18644 12.1368 7.22477 12.1394 7.2465C12.1477 7.3238 11.963 7.53143 11.4558 7.58637C11.1057 7.6247 10.8508 7.93966 10.8898 8.29039C10.9077 8.46544 10.9965 8.61685 11.1236 8.71907Z" fill="#AA8DD8"/>
<path id="Vector_5" d="M3.41176 14.6277C2.15129 14.2718 1.2818 14.834 1.07481 15.5719C0.867821 16.3092 1.3163 17.2425 2.57613 17.5971C3.06806 17.7351 3.21563 17.9702 3.19583 18.0449C3.17411 18.1203 2.92431 18.2443 2.43367 18.1056C1.17383 17.7511 0.304347 18.3133 0.0973558 19.0505C-0.110913 19.7884 0.338844 20.7205 1.59932 21.0757C2.0906 21.2137 2.23882 21.4494 2.2171 21.5242C2.19601 21.5989 1.94686 21.7229 1.45557 21.5849C1.11698 21.4897 0.763047 21.6871 0.667857 22.0263C0.573305 22.3662 0.770714 22.7188 1.11059 22.8147C2.36978 23.1692 3.23991 22.6083 3.44818 21.8698C3.65517 21.1326 3.20605 20.2005 1.94494 19.8452C1.45302 19.7066 1.30544 19.4722 1.32716 19.3968C1.34761 19.322 1.59676 19.1974 2.0874 19.3354C3.34852 19.6906 4.21737 19.1297 4.425 18.3906C4.63263 17.6533 4.18351 16.7212 2.92303 16.3654C2.43239 16.228 2.28481 15.9916 2.30526 15.9175C2.32698 15.8421 2.5755 15.7182 3.06678 15.8562C3.40665 15.952 3.75866 15.754 3.85449 15.4148C3.94968 15.0762 3.75164 14.7235 3.41176 14.6277Z" fill="#77B255"/>
<path id="Vector_6" d="M8.30592 12.9045C8.49374 12.9045 8.67901 12.8221 8.80551 12.6649C9.02591 12.3889 8.98055 11.9871 8.70584 11.7667C8.56657 11.6549 5.2445 9.04578 0.549514 9.71723C0.200057 9.76706 -0.0427122 10.0903 0.00711918 10.4398C0.0569506 10.7886 0.377658 11.0339 0.730309 10.9815C4.87843 10.3925 7.87724 12.741 7.90663 12.7646C8.02546 12.8591 8.16601 12.9045 8.30592 12.9045Z" fill="#AA8DD8"/>
<path id="Vector_7" d="M19.3248 10.247C19.3855 10.247 19.4475 10.2381 19.5088 10.2202C19.8468 10.1186 20.0384 9.76275 19.9369 9.42479C19.213 7.01437 18.5569 3.16779 19.3632 2.16478C19.4532 2.05106 19.5893 1.93926 19.9011 1.9629C20.5003 2.0089 20.4435 3.2732 20.4428 3.28598C20.416 3.63799 20.6805 3.94464 21.0319 3.97084C21.389 3.99256 21.6905 3.73318 21.7167 3.38117C21.7825 2.50018 21.5085 0.803365 19.9969 0.689009C19.3223 0.637901 18.762 0.872362 18.3665 1.36428C16.8518 3.24956 18.3895 8.71501 18.7128 9.79213C18.7958 10.0688 19.0501 10.247 19.3248 10.247Z" fill="#77B255"/>
<path id="Vector_8" d="M6.7087 7.05232C6.17945 7.05232 5.75041 6.62328 5.75041 6.09403C5.75041 5.56478 6.17945 5.13574 6.7087 5.13574C7.23795 5.13574 7.66699 5.56478 7.66699 6.09403C7.66699 6.62328 7.23795 7.05232 6.7087 7.05232Z" fill="#5C913B"/>
<path id="Vector_9" d="M21.7223 12.802C21.0166 12.802 20.4446 12.23 20.4446 11.5243C20.4446 10.8186 21.0166 10.2466 21.7223 10.2466C22.4279 10.2466 23 10.8186 23 11.5243C23 12.23 22.4279 12.802 21.7223 12.802Z" fill="#9266CC"/>
<path id="Vector_10" d="M2.238 13.441C1.70875 13.441 1.27971 13.012 1.27971 12.4827C1.27971 11.9535 1.70875 11.5244 2.238 11.5244C2.76725 11.5244 3.19629 11.9535 3.19629 12.4827C3.19629 13.012 2.76725 13.441 2.238 13.441Z" fill="#5C913B"/>
<path id="Vector_11" d="M7.98702 21.107C7.45777 21.107 7.02873 20.678 7.02873 20.1487C7.02873 19.6195 7.45777 19.1904 7.98702 19.1904C8.51627 19.1904 8.94531 19.6195 8.94531 20.1487C8.94531 20.678 8.51627 21.107 7.98702 21.107Z" fill="#5C913B"/>
<path id="Vector_12" d="M5.11193 3.85769C4.40626 3.85769 3.83421 3.28563 3.83421 2.57997C3.83421 1.8743 4.40626 1.30225 5.11193 1.30225C5.81759 1.30225 6.38965 1.8743 6.38965 2.57997C6.38965 3.28563 5.81759 3.85769 5.11193 3.85769Z" fill="#FFCC4D"/>
<path id="Vector_13" d="M2.238 6.41316C1.70875 6.41316 1.27971 5.98412 1.27971 5.45487C1.27971 4.92562 1.70875 4.49658 2.238 4.49658C2.76725 4.49658 3.19629 4.92562 3.19629 5.45487C3.19629 5.98412 2.76725 6.41316 2.238 6.41316Z" fill="#FFCC4D"/>
<path id="Vector_14" d="M4.15401 8.96834C3.62476 8.96834 3.19572 8.5393 3.19572 8.01005C3.19572 7.4808 3.62476 7.05176 4.15401 7.05176C4.68326 7.05176 5.1123 7.4808 5.1123 8.01005C5.1123 8.5393 4.68326 8.96834 4.15401 8.96834Z" fill="#FFCC4D"/>
<path id="Vector_15" d="M18.2077 15.9967C17.6785 15.9967 17.2494 15.5676 17.2494 15.0384C17.2494 14.5091 17.6785 14.0801 18.2077 14.0801C18.737 14.0801 19.166 14.5091 19.166 15.0384C19.166 15.5676 18.737 15.9967 18.2077 15.9967Z" fill="#FFCC4D"/>
</g>
</svg>
