<svg width="130" height="34" viewBox="0 0 130 34" fill="none" xmlns="http://www.w3.org/2000/svg">
<g id="Graph 3">
<path id="GraphCopy" fill-rule="evenodd" clip-rule="evenodd" d="M129.793 12.222C129.793 12.222 121.027 16.5783 114.91 15.7334C108.794 14.8885 104.28 9.76575 98.3008 9.76575C92.3218 9.76575 87.03 11.0257 79.5735 8.22804C72.117 5.43037 70.8852 1.58496 61.9098 1.58496C52.9345 1.58496 41.3959 9.84203 29.354 3.52897C17.312 -2.7841 -7.96841 8.72779 -7.96841 8.72779V33.7502H129.793V12.222Z" fill="url(#paint0_linear_1_29276)"/>
<path id="Graph" d="M129.793 12.179C129.793 12.179 121.027 16.5352 114.91 15.6903C108.794 14.8454 104.28 9.72268 98.3008 9.72268C92.3218 9.72268 87.03 10.9826 79.5735 8.18497C72.117 5.3873 70.8852 1.54189 61.9098 1.54189C52.9345 1.54189 41.3959 9.79897 29.354 3.4859C17.312 -2.82717 -7.96841 8.68472 -7.96841 8.68472" stroke="#54CC8B" stroke-width="1.3"/>
</g>
<defs>
<linearGradient id="paint0_linear_1_29276" x1="64.9995" y1="33.458" x2="65.4995" y2="1.458" gradientUnits="userSpaceOnUse">
<stop stop-color="white" stop-opacity="0"/>
<stop offset="1" stop-color="#54CC8B" stop-opacity="0.35"/>
</linearGradient>
</defs>
</svg>
