<svg width="24" height="24" viewBox="0 0 24 24" fill="none" xmlns="http://www.w3.org/2000/svg">
<path d="M19.4308 12.98C19.4708 12.66 19.5008 12.34 19.5008 12C19.5008 11.66 19.4708 11.34 19.4308 11.02L21.5408 9.37005C21.7308 9.22005 21.7808 8.95005 21.6608 8.73005L19.6608 5.27005C19.6019 5.16687 19.5081 5.08807 19.3963 5.04775C19.2845 5.00744 19.1621 5.00825 19.0508 5.05005L16.5608 6.05005C16.0408 5.65005 15.4808 5.32005 14.8708 5.07005L14.4908 2.42005C14.4743 2.30239 14.4154 2.19481 14.3252 2.11748C14.2349 2.04016 14.1196 1.9984 14.0008 2.00005H10.0008C9.75082 2.00005 9.54082 2.18005 9.51082 2.42005L9.13082 5.07005C8.52082 5.32005 7.96082 5.66005 7.44082 6.05005L4.95082 5.05005C4.89283 5.03038 4.83204 5.02025 4.77082 5.02005C4.60082 5.02005 4.43082 5.11005 4.34082 5.27005L2.34082 8.73005C2.21082 8.95005 2.27082 9.22005 2.46082 9.37005L4.57082 11.02C4.53082 11.34 4.50082 11.67 4.50082 12C4.50082 12.33 4.53082 12.66 4.57082 12.98L2.46082 14.63C2.27082 14.78 2.22082 15.05 2.34082 15.27L4.34082 18.73C4.39977 18.8332 4.49354 18.912 4.60532 18.9523C4.7171 18.9927 4.83958 18.9918 4.95082 18.95L7.44082 17.95C7.96082 18.35 8.52082 18.68 9.13082 18.93L9.51082 21.58C9.54082 21.82 9.75082 22 10.0008 22H14.0008C14.2508 22 14.4608 21.82 14.4908 21.58L14.8708 18.93C15.4808 18.68 16.0408 18.34 16.5608 17.95L19.0508 18.95C19.1108 18.97 19.1708 18.98 19.2308 18.98C19.4008 18.98 19.5708 18.89 19.6608 18.73L21.6608 15.27C21.7808 15.05 21.7308 14.78 21.5408 14.63L19.4308 12.98ZM17.4508 11.27C17.4908 11.58 17.5008 11.79 17.5008 12C17.5008 12.21 17.4808 12.43 17.4508 12.73L17.3108 13.86L18.2008 14.56L19.2808 15.4L18.5808 16.61L17.3108 16.1L16.2708 15.68L15.3708 16.36C14.9408 16.68 14.5308 16.92 14.1208 17.09L13.0608 17.52L12.9008 18.65L12.7008 20H11.3008L11.1108 18.65L10.9508 17.52L9.89082 17.09C9.46082 16.91 9.06082 16.68 8.66082 16.38L7.75082 15.68L6.69082 16.11L5.42082 16.62L4.72082 15.41L5.80082 14.57L6.69082 13.87L6.55082 12.74C6.52082 12.43 6.50082 12.2 6.50082 12C6.50082 11.8 6.52082 11.57 6.55082 11.27L6.69082 10.14L5.80082 9.44005L4.72082 8.60005L5.42082 7.39005L6.69082 7.90005L7.73082 8.32005L8.63082 7.64005C9.06082 7.32005 9.47082 7.08005 9.88082 6.91005L10.9408 6.48005L11.1008 5.35005L11.3008 4.00005H12.6908L12.8808 5.35005L13.0408 6.48005L14.1008 6.91005C14.5308 7.09005 14.9308 7.32005 15.3308 7.62005L16.2408 8.32005L17.3008 7.89005L18.5708 7.38005L19.2708 8.59005L18.2008 9.44005L17.3108 10.14L17.4508 11.27ZM12.0008 8.00005C9.79082 8.00005 8.00082 9.79005 8.00082 12C8.00082 14.21 9.79082 16 12.0008 16C14.2108 16 16.0008 14.21 16.0008 12C16.0008 9.79005 14.2108 8.00005 12.0008 8.00005ZM12.0008 14C10.9008 14 10.0008 13.1 10.0008 12C10.0008 10.9 10.9008 10 12.0008 10C13.1008 10 14.0008 10.9 14.0008 12C14.0008 13.1 13.1008 14 12.0008 14Z" fill="black"/>
</svg>
