<svg width="20" height="18" viewBox="0 0 20 18" fill="none" xmlns="http://www.w3.org/2000/svg">
<path fill-rule="evenodd" clip-rule="evenodd" d="M7.33701 8.35866C6.93597 8.35866 6.61887 8.64199 6.61887 9.00033C6.61887 9.35033 6.93597 9.64199 7.33701 9.64199H12.9329V13.6253C12.9329 15.667 11.077 17.3337 8.78263 17.3337H4.2406C1.95559 17.3337 0.0996094 15.6753 0.0996094 13.6337V4.37533C0.0996094 2.32533 1.96492 0.666992 4.24992 0.666992H8.80128C11.077 0.666992 12.9329 2.32533 12.9329 4.36699V8.35866H7.33701ZM16.2607 6.11714L18.9374 8.54213C19.0749 8.66714 19.1482 8.82547 19.1482 9.00047C19.1482 9.16713 19.0749 9.3338 18.9374 9.45047L16.2607 11.8755C16.1232 12.0005 15.9399 12.0671 15.7657 12.0671C15.5824 12.0671 15.399 12.0005 15.2615 11.8755C14.9865 11.6255 14.9865 11.2171 15.2615 10.9671L16.7282 9.64213H12.9332V8.3588H16.7282L15.2615 7.0338C14.9865 6.7838 14.9865 6.37547 15.2615 6.12547C15.5365 5.86714 15.9857 5.86714 16.2607 6.11714Z" fill="#030229"/>
</svg>
