<svg width="22" height="22" viewBox="0 0 22 22" fill="none" xmlns="http://www.w3.org/2000/svg">
<path d="M11.6111 21.9999C5.87349 21.9999 1.22222 17.3487 1.22222 11.6111C1.22222 5.87343 5.87349 1.22217 11.6111 1.22217C17.3487 1.22217 22 5.87343 22 11.6111C22 17.3487 17.3487 21.9999 11.6111 21.9999Z" fill="#FFCC4D"/>
<path d="M11.0004 17.4166C10.3254 17.4166 9.77821 16.7326 9.77821 15.8889C9.77821 15.0451 10.3254 14.3611 11.0004 14.3611C11.6754 14.3611 12.2227 15.0451 12.2227 15.8889C12.2227 16.7326 11.6754 17.4166 11.0004 17.4166Z" fill="#664500"/>
<path d="M17.0434 13.0674C17.1546 13.0674 17.2677 13.0368 17.3685 12.9733C17.6539 12.7936 17.7395 12.4166 17.5598 12.1306C17 11.2426 15.2981 9.724 12.8604 10.3204C12.5328 10.4005 12.3324 10.7317 12.4124 11.0593C12.4931 11.3868 12.8255 11.5861 13.1513 11.5072C15.3537 10.9682 16.5136 12.7637 16.5252 12.782C16.6419 12.9666 16.8405 13.0674 17.0434 13.0674ZM9.72659 10.7806C9.90381 10.7806 10.0786 10.7042 10.1996 10.5569C10.4135 10.296 10.3756 9.91039 10.114 9.6965C8.17314 8.10517 5.9817 8.74194 5.09376 9.30172C4.80837 9.48139 4.72281 9.85906 4.90309 10.1444C5.08215 10.4286 5.45798 10.5154 5.74398 10.3369C5.82831 10.2856 7.60909 9.22289 9.33976 10.6419C9.45342 10.7354 9.59031 10.7806 9.72659 10.7806Z" fill="#664500"/>
<path d="M13.8442 19.1114C13.8857 19.1114 13.9279 19.1059 13.9695 19.0942C14.2127 19.0252 14.3545 18.7722 14.2854 18.5284C14.0183 17.5872 14.1277 16.6773 14.5848 16.0314C14.8886 15.6024 15.3212 15.3402 15.7722 15.3115C16.0252 15.2962 16.2171 15.078 16.2012 14.8256C16.1853 14.5732 15.9684 14.3667 15.7154 14.3972C14.9863 14.4425 14.3019 14.8452 13.8375 15.5015C13.2196 16.3748 13.0613 17.5689 13.4042 18.7777C13.461 18.98 13.645 19.1114 13.8442 19.1114ZM7.09934 17.2407C7.18612 17.2407 7.27351 17.2163 7.35112 17.165C8.06428 16.6944 8.46334 15.8712 8.44623 14.9069C8.42851 13.9077 7.95184 12.9801 7.23378 12.5425C7.01806 12.4105 6.73634 12.479 6.60434 12.6959C6.47234 12.9122 6.54078 13.1934 6.75773 13.3254C7.2069 13.5991 7.51795 14.2414 7.53017 14.9228C7.5424 15.5675 7.29245 16.1059 6.84695 16.3999C6.63551 16.5392 6.57745 16.8234 6.71678 17.0348C6.80478 17.1686 6.95023 17.2407 7.09934 17.2407Z" fill="#E2A62D"/>
<path d="M11.5015 1.66212C11.5278 1.63217 11.5687 1.61567 11.617 1.60651C11.617 1.60651 21.3483 -0.240882 21.7694 0.130673C22.1898 0.50284 21.5475 10.3876 21.5475 10.3876C21.5445 10.4371 21.5335 10.4792 21.5066 10.5092C21.1375 10.9272 18.5989 9.28451 15.8361 6.8419C13.0727 4.39867 11.1324 2.08012 11.5015 1.66212Z" fill="#DD2E44"/>
<path d="M21.7868 0.165715C21.796 0.184048 21.8039 0.209104 21.8101 0.240882C21.7129 1.07871 20.7742 7.97266 20.1894 10.1274C19.3118 9.63671 18.4202 8.96999 17.3728 8.13949C18.2626 6.51088 21.2924 0.089326 21.7868 0.165715Z" fill="#EA596E"/>
<path d="M3.72663 17.8621L10.1879 17.0658C10.8785 17.0035 12.0927 16.9973 12.0304 15.9035C11.9736 14.9116 10.7837 15.0644 9.90435 15.1946L3.40335 16.2787L3.72663 17.8621Z" fill="#3B88C3"/>
<path d="M3.40397 16.2794L5.98408 15.837C6.28597 15.7826 6.55486 16.2324 6.5683 16.7084C6.58358 17.2377 6.42958 17.5053 6.12463 17.5677L3.59219 17.8806L3.40397 16.2794Z" fill="#88C9F9"/>
<path d="M0.661319 16.0973L2.26365 17.5707L5.12793 14.4559L3.5256 12.9825C2.69387 12.2174 1.38732 12.2724 0.622208 13.1041L0.539707 13.1939C-0.224793 14.0262 -0.170403 15.3322 0.661319 16.0973Z" fill="#3B88C3"/>
<path d="M2.26448 17.5716C1.57627 16.9389 1.65948 15.7286 2.45033 14.8685C3.24118 14.0083 4.4402 13.824 5.1284 14.4568C5.81661 15.0896 5.7334 16.2998 4.94255 17.16C4.1517 18.0201 2.95268 18.2044 2.26448 17.5716Z" fill="#88C9F9"/>
<path d="M2.83747 16.9484C2.49336 16.632 2.59904 15.9572 3.07351 15.4412C3.54797 14.9252 4.21155 14.7633 4.55566 15.0797C4.89976 15.3961 4.79408 16.0709 4.31962 16.5869C3.84515 17.103 3.18157 17.2648 2.83747 16.9484Z" fill="#226699"/>
<path d="M20.472 21.389C19.9657 21.389 19.5553 20.9786 19.5553 20.4723C19.5553 19.9661 19.9657 19.5557 20.472 19.5557C20.9783 19.5557 21.3887 19.9661 21.3887 20.4723C21.3887 20.9786 20.9783 21.389 20.472 21.389Z" fill="#55ACEE"/>
<path d="M4.27778 2.44444C3.60276 2.44444 3.05556 1.89724 3.05556 1.22222C3.05556 0.547207 3.60276 0 4.27778 0C4.95279 0 5.5 0.547207 5.5 1.22222C5.5 1.89724 4.95279 2.44444 4.27778 2.44444Z" fill="#55ACEE"/>
<path d="M19.0274 17.8725L20.4562 14.4405L21.748 18.1347L19.0274 17.8725ZM6.11094 3.0555L8.55538 3.66661L7.94427 1.22217L6.11094 3.0555Z" fill="#EA596E"/>
<path d="M2.44531 7.94453L0.000257254 4.88836L1.83359 3.66675L2.44531 7.94453Z" fill="#77B255"/>
</svg>
