<svg width="22" height="22" viewBox="0 0 22 22" fill="none" xmlns="http://www.w3.org/2000/svg">
<path d="M10.3889 21.9999C16.1265 21.9999 20.7778 17.3487 20.7778 11.6111C20.7778 5.87343 16.1265 1.22217 10.3889 1.22217C4.65126 1.22217 0 5.87343 0 11.6111C0 17.3487 4.65126 21.9999 10.3889 21.9999Z" fill="#FFCC4D"/>
<path d="M10.9996 17.4166C11.6746 17.4166 12.2218 16.7326 12.2218 15.8889C12.2218 15.0451 11.6746 14.3611 10.9996 14.3611C10.3246 14.3611 9.77734 15.0451 9.77734 15.8889C9.77734 16.7326 10.3246 17.4166 10.9996 17.4166Z" fill="#664500"/>
<path d="M4.95658 13.0674C4.84536 13.0674 4.7323 13.0368 4.63147 12.9733C4.34608 12.7936 4.26052 12.4166 4.44019 12.1306C4.99997 11.2426 6.70191 9.724 9.13963 10.3204C9.46719 10.4005 9.66763 10.7317 9.58758 11.0593C9.50691 11.3868 9.17447 11.5861 8.84874 11.5072C6.6463 10.9682 5.48641 12.7637 5.4748 12.782C5.35808 12.9666 5.15947 13.0674 4.95658 13.0674ZM12.2734 10.7806C12.0962 10.7806 11.9214 10.7042 11.8004 10.5569C11.5865 10.296 11.6244 9.91039 11.886 9.6965C13.8269 8.10517 16.0183 8.74194 16.9062 9.30172C17.1916 9.48139 17.2772 9.85906 17.0969 10.1444C16.9179 10.4286 16.542 10.5154 16.256 10.3369C16.1717 10.2856 14.3909 9.22289 12.6602 10.6419C12.5466 10.7354 12.4097 10.7806 12.2734 10.7806Z" fill="#664500"/>
<path d="M8.15583 19.1114C8.11427 19.1114 8.0721 19.1059 8.03055 19.0942C7.78733 19.0252 7.64555 18.7722 7.7146 18.5284C7.98166 17.5872 7.87227 16.6773 7.41516 16.0314C7.11144 15.6024 6.67877 15.3402 6.22777 15.3115C5.97477 15.2962 5.78288 15.078 5.79877 14.8256C5.81466 14.5732 6.0316 14.3667 6.2846 14.3972C7.01366 14.4425 7.6981 14.8452 8.16255 15.5015C8.78038 16.3748 8.93866 17.5689 8.59583 18.7777C8.53899 18.98 8.35505 19.1114 8.15583 19.1114ZM14.9007 17.2407C14.8139 17.2407 14.7265 17.2163 14.6489 17.165C13.9357 16.6944 13.5367 15.8712 13.5538 14.9069C13.5715 13.9077 14.0482 12.9801 14.7662 12.5425C14.9819 12.4105 15.2637 12.479 15.3957 12.6959C15.5277 12.9122 15.4592 13.1934 15.2423 13.3254C14.7931 13.5991 14.482 14.2414 14.4698 14.9228C14.4576 15.5675 14.7075 16.1059 15.153 16.3999C15.3645 16.5392 15.4225 16.8234 15.2832 17.0348C15.1952 17.1686 15.0498 17.2407 14.9007 17.2407Z" fill="#E2A62D"/>
<path d="M10.4985 1.66212C10.4722 1.63217 10.4313 1.61567 10.383 1.60651C10.383 1.60651 0.651682 -0.240882 0.230626 0.130673C-0.189818 0.50284 0.45246 10.3876 0.45246 10.3876C0.455515 10.4371 0.466515 10.4792 0.493404 10.5092C0.862515 10.9272 3.40107 9.28451 6.1639 6.8419C8.92735 4.39867 10.8676 2.08012 10.4985 1.66212Z" fill="#DD2E44"/>
<path d="M0.213164 0.165715C0.203997 0.184048 0.196053 0.209104 0.189941 0.240882C0.287108 1.07871 1.22577 7.97266 1.81061 10.1274C2.68816 9.63671 3.57977 8.96999 4.62722 8.13949C3.73744 6.51088 0.707553 0.089326 0.213164 0.165715Z" fill="#EA596E"/>
<path d="M18.2734 17.8621L11.8121 17.0658C11.1215 17.0035 9.90726 16.9973 9.96959 15.9035C10.0264 14.9116 11.2163 15.0644 12.0957 15.1946L18.5967 16.2787L18.2734 17.8621Z" fill="#3B88C3"/>
<path d="M18.596 16.2794L16.0159 15.837C15.714 15.7826 15.4451 16.2324 15.4317 16.7084C15.4164 17.2377 15.5704 17.5053 15.8754 17.5677L18.4078 17.8806L18.596 16.2794Z" fill="#88C9F9"/>
<path d="M21.3387 16.0973L19.7363 17.5707L16.8721 14.4559L18.4744 12.9825C19.3061 12.2174 20.6127 12.2724 21.3778 13.1041L21.4603 13.1939C22.2248 14.0262 22.1704 15.3322 21.3387 16.0973Z" fill="#3B88C3"/>
<path d="M19.7355 17.5716C20.4237 16.9389 20.3405 15.7286 19.5497 14.8685C18.7588 14.0083 17.5598 13.824 16.8716 14.4568C16.1834 15.0896 16.2666 16.2998 17.0575 17.16C17.8483 18.0201 19.0473 18.2044 19.7355 17.5716Z" fill="#88C9F9"/>
<path d="M19.1625 16.9484C19.5066 16.632 19.401 15.9572 18.9265 15.4412C18.452 14.9252 17.7884 14.7633 17.4443 15.0797C17.1002 15.3961 17.2059 16.0709 17.6804 16.5869C18.1548 17.103 18.8184 17.2648 19.1625 16.9484Z" fill="#226699"/>
<path d="M1.52799 21.389C2.03426 21.389 2.44466 20.9786 2.44466 20.4723C2.44466 19.9661 2.03426 19.5557 1.52799 19.5557C1.02173 19.5557 0.611328 19.9661 0.611328 20.4723C0.611328 20.9786 1.02173 21.389 1.52799 21.389Z" fill="#55ACEE"/>
<path d="M17.7222 2.44444C18.3972 2.44444 18.9444 1.89724 18.9444 1.22222C18.9444 0.547207 18.3972 0 17.7222 0C17.0472 0 16.5 0.547207 16.5 1.22222C16.5 1.89724 17.0472 2.44444 17.7222 2.44444Z" fill="#55ACEE"/>
<path d="M2.97262 17.8725L1.54384 14.4405L0.251953 18.1347L2.97262 17.8725ZM15.8891 3.0555L13.4446 3.66661L14.0557 1.22217L15.8891 3.0555Z" fill="#EA596E"/>
<path d="M19.5552 7.94453L22.0002 4.88836L20.1669 3.66675L19.5552 7.94453Z" fill="#77B255"/>
</svg>
