<svg width="16" height="17" viewBox="0 0 16 17" fill="none" xmlns="http://www.w3.org/2000/svg">
<g id="u:copy-alt">
<path id="Vector" d="M10.6667 13.8333H5.33333C4.8029 13.8333 4.29419 13.6225 3.91912 13.2475C3.54405 12.8724 3.33333 12.3637 3.33333 11.8333V5.16658C3.33333 4.98977 3.2631 4.8202 3.13807 4.69518C3.01305 4.57016 2.84348 4.49992 2.66667 4.49992C2.48986 4.49992 2.32029 4.57016 2.19526 4.69518C2.07024 4.8202 2 4.98977 2 5.16658V11.8333C2 12.7173 2.35119 13.5652 2.97631 14.1903C3.60143 14.8154 4.44928 15.1666 5.33333 15.1666H10.6667C10.8435 15.1666 11.013 15.0963 11.1381 14.9713C11.2631 14.8463 11.3333 14.6767 11.3333 14.4999C11.3333 14.3231 11.2631 14.1535 11.1381 14.0285C11.013 13.9035 10.8435 13.8333 10.6667 13.8333ZM14 6.45992C13.9931 6.39867 13.9796 6.33834 13.96 6.27992V6.21992C13.9279 6.15137 13.8852 6.08836 13.8333 6.03325L9.83333 2.03325C9.77822 1.9814 9.71521 1.93864 9.64667 1.90659H9.58667L9.37333 1.83325H6.66667C6.13623 1.83325 5.62753 2.04397 5.25245 2.41904C4.87738 2.79411 4.66667 3.30282 4.66667 3.83325V10.4999C4.66667 11.0304 4.87738 11.5391 5.25245 11.9141C5.62753 12.2892 6.13623 12.4999 6.66667 12.4999H12C12.5304 12.4999 13.0391 12.2892 13.4142 11.9141C13.7893 11.5391 14 11.0304 14 10.4999V6.49992C14 6.49992 14 6.49992 14 6.45992ZM10 4.10659L11.7267 5.83325H10.6667C10.4899 5.83325 10.3203 5.76301 10.1953 5.63799C10.0702 5.51297 10 5.3434 10 5.16658V4.10659ZM12.6667 10.4999C12.6667 10.6767 12.5964 10.8463 12.4714 10.9713C12.3464 11.0963 12.1768 11.1666 12 11.1666H6.66667C6.48986 11.1666 6.32029 11.0963 6.19526 10.9713C6.07024 10.8463 6 10.6767 6 10.4999V3.83325C6 3.65644 6.07024 3.48687 6.19526 3.36185C6.32029 3.23682 6.48986 3.16659 6.66667 3.16659H8.66667V5.16658C8.66667 5.69702 8.87738 6.20573 9.25245 6.5808C9.62753 6.95587 10.1362 7.16658 10.6667 7.16658H12.6667V10.4999Z" fill="#8B8D97"/>
</g>
</svg>
