<svg width="23" height="22" viewBox="0 0 23 22" fill="none" xmlns="http://www.w3.org/2000/svg">
<g id="mdi:eye-outline">
<path id="Vector" d="M11.1322 8.25C11.8615 8.25 12.561 8.53973 13.0767 9.05546C13.5924 9.57118 13.8822 10.2707 13.8822 11C13.8822 11.7293 13.5924 12.4288 13.0767 12.9445C12.561 13.4603 11.8615 13.75 11.1322 13.75C10.4028 13.75 9.70334 13.4603 9.18762 12.9445C8.67189 12.4288 8.38216 11.7293 8.38216 11C8.38216 10.2707 8.67189 9.57118 9.18762 9.05546C9.70334 8.53973 10.4028 8.25 11.1322 8.25ZM11.1322 4.125C15.7155 4.125 19.6297 6.97583 21.2155 11C19.6297 15.0242 15.7155 17.875 11.1322 17.875C6.54883 17.875 2.63466 15.0242 1.04883 11C2.63466 6.97583 6.54883 4.125 11.1322 4.125ZM3.04716 11C3.78806 12.5128 4.93852 13.7874 6.36777 14.6788C7.79701 15.5703 9.44769 16.0429 11.1322 16.0429C12.8166 16.0429 14.4673 15.5703 15.8966 14.6788C17.3258 13.7874 18.4763 12.5128 19.2172 11C18.4763 9.48722 17.3258 8.21265 15.8966 7.32118C14.4673 6.42972 12.8166 5.95712 11.1322 5.95712C9.44769 5.95712 7.79701 6.42972 6.36777 7.32118C4.93852 8.21265 3.78806 9.48722 3.04716 11Z" fill="white"/>
</g>
</svg>
